<?xml version="1.0" standalone="no"?>
<!DOCTYPE svg PUBLIC "-//W3C//DTD SVG 20010904//EN"
 "http://www.w3.org/TR/2001/REC-SVG-20010904/DTD/svg10.dtd">
<svg version="1.0" xmlns="http://www.w3.org/2000/svg"
 width="2106.000000pt" height="320.000000pt" viewBox="0 0 2106.000000 320.000000"
 preserveAspectRatio="xMidYMid meet">
<metadata>
Created by potrace 1.16, written by Peter Selinger 2001-2019
</metadata>
<g transform="translate(0.000000,320.000000) scale(0.100000,-0.100000)"
fill="#000000" stroke="none">
<path d="M14973 2641 c-57 -26 -77 -67 -78 -156 0 -124 56 -175 193 -175 140
0 192 43 199 164 5 91 -14 132 -77 164 -58 29 -175 31 -237 3z"/>
<path d="M19185 2646 c-16 -7 -41 -26 -55 -41 -22 -23 -25 -37 -28 -108 -4
-97 14 -134 77 -167 54 -27 169 -28 228 0 61 27 83 68 83 155 0 85 -21 125
-79 155 -48 24 -177 27 -226 6z"/>
<path d="M3760 1711 l0 -861 125 0 125 0 0 329 0 329 203 5 c148 3 218 9 261
21 237 69 367 214 396 446 30 232 -64 431 -245 517 -124 58 -174 65 -537 70
l-328 5 0 -861z m638 626 c157 -45 233 -158 219 -326 -18 -207 -152 -290 -469
-291 l-138 0 0 321 0 322 168 -6 c100 -3 188 -12 220 -20z"/>
<path d="M13330 1700 l0 -860 385 0 c434 0 486 6 615 66 188 88 270 221 270
438 0 225 -74 329 -280 393 -9 3 0 10 23 18 131 45 205 159 215 331 17 307
-147 437 -580 464 -84 5 -264 10 -400 10 l-248 0 0 -860z m730 526 c86 -32
128 -98 116 -184 -9 -63 -39 -107 -94 -134 -42 -21 -64 -23 -214 -26 l-168 -4
0 187 0 188 158 -6 c110 -3 170 -10 202 -21z m35 -674 c91 -42 119 -84 119
-182 0 -106 -55 -183 -153 -210 -20 -5 -109 -10 -198 -10 l-163 0 0 216 0 216
173 -4 c153 -3 178 -6 222 -26z"/>
<path d="M11267 2433 c-2 -5 -21 -68 -42 -140 l-38 -133 -131 0 c-99 -1 -144
-5 -182 -18 -43 -15 -57 -16 -87 -6 -120 42 -346 43 -472 4 -192 -60 -317
-194 -372 -400 -26 -95 -25 -408 0 -500 54 -192 161 -313 335 -378 56 -21 90
-26 207 -29 152 -6 222 3 312 39 l58 23 3 113 3 113 -28 -14 c-55 -28 -161
-58 -234 -66 -283 -32 -429 122 -429 454 0 229 69 374 209 439 39 18 64 21
156 20 92 0 124 -5 194 -28 l83 -28 62 28 c53 24 76 28 184 32 l122 4 0 -414
c0 -450 4 -492 57 -572 37 -56 71 -85 133 -114 75 -35 258 -43 365 -15 l70 18
3 98 c1 53 1 97 0 97 -2 0 -28 -7 -58 -15 -30 -8 -86 -15 -125 -15 -93 0 -140
26 -175 95 l-25 50 -3 393 -3 392 190 0 191 0 0 95 0 95 -190 0 -190 0 0 145
0 145 -74 0 c-41 0 -77 -3 -79 -7z"/>
<path d="M15709 2403 c-6 -16 -28 -75 -50 -133 -22 -57 -45 -108 -52 -112 -6
-4 -166 -8 -354 -8 l-343 0 0 -655 0 -655 180 0 180 0 0 520 0 520 160 0 160
0 0 -357 c0 -450 12 -514 107 -609 105 -106 352 -133 576 -64 l67 21 0 140 c0
130 -1 141 -17 134 -48 -18 -145 -35 -204 -35 -52 0 -73 5 -100 23 -59 39 -59
41 -59 410 l0 337 180 0 180 0 0 135 0 135 -180 0 -180 0 0 140 0 140 -120 0
-120 0 -11 -27z"/>
<path d="M17000 2174 c-304 -41 -481 -210 -531 -507 -16 -93 -6 -363 15 -442
41 -151 132 -278 242 -337 96 -52 194 -72 349 -72 159 0 231 12 328 56 l67 31
0 159 c0 88 -3 158 -7 156 -5 -1 -43 -20 -85 -41 -97 -48 -201 -71 -291 -64
-160 13 -240 118 -254 332 -10 155 23 293 85 358 53 56 98 72 197 71 77 -1
105 -6 190 -37 55 -19 101 -34 103 -32 2 2 28 66 57 142 l53 138 -49 22 c-88
40 -197 63 -319 67 -63 2 -131 2 -150 0z"/>
<path d="M18124 2170 c-204 -29 -362 -140 -445 -315 -50 -105 -69 -204 -69
-359 0 -159 18 -247 75 -362 119 -243 387 -363 695 -310 244 41 412 194 476
431 25 93 30 322 10 426 -48 240 -208 416 -431 474 -74 19 -229 27 -311 15z
m243 -318 c54 -28 90 -76 116 -154 31 -95 30 -305 -1 -406 -41 -130 -127 -190
-260 -180 -108 8 -184 72 -219 186 -25 80 -25 314 -1 393 41 133 125 193 258
186 40 -3 81 -12 107 -25z"/>
<path d="M20515 2174 c-11 -2 -45 -9 -75 -15 -77 -15 -162 -63 -216 -121 -53
-57 -54 -57 -80 44 l-18 68 -143 0 -143 0 0 -655 0 -655 184 0 185 0 3 398 c4
381 5 400 27 465 39 120 118 177 242 177 105 -1 175 -57 198 -160 6 -27 11
-214 11 -462 l0 -418 185 0 185 0 0 458 c-1 338 -4 477 -14 533 -30 167 -119
271 -275 319 -62 20 -215 34 -256 24z"/>
<path d="M5572 2151 c-97 -33 -171 -95 -256 -215 -12 -17 -15 -6 -26 97 l-12
117 -99 0 -99 0 0 -650 0 -650 119 0 120 0 3 393 c4 371 5 395 25 449 40 106
92 165 193 219 40 22 58 24 167 24 l121 0 6 45 c3 25 8 75 12 111 l6 66 -38 6
c-74 13 -188 7 -242 -12z"/>
<path d="M6353 2156 c-155 -36 -296 -144 -362 -277 -56 -115 -74 -205 -74
-374 -1 -177 14 -250 74 -372 70 -142 200 -247 355 -287 80 -21 260 -21 339
-1 102 26 184 73 255 144 75 76 119 153 152 266 30 107 33 373 5 475 -58 208
-193 354 -384 416 -68 22 -281 28 -360 10z m226 -196 c77 -13 124 -36 174 -86
77 -78 112 -192 112 -374 0 -323 -128 -482 -374 -468 -216 13 -324 169 -324
468 0 181 32 290 112 373 55 58 115 84 226 96 6 0 39 -4 74 -9z"/>
<path d="M9055 2160 c-215 -43 -361 -192 -426 -436 -30 -113 -31 -345 0 -457
55 -206 183 -346 373 -408 66 -22 90 -24 253 -24 190 0 238 7 353 52 l62 25 0
105 c0 96 -2 105 -17 98 -10 -4 -65 -23 -123 -43 -102 -35 -109 -36 -255 -37
-142 0 -153 1 -206 26 -69 32 -130 91 -162 156 -28 56 -37 86 -46 166 l-7 57
439 0 440 0 -6 143 c-3 81 -12 167 -21 200 -52 191 -189 330 -367 372 -68 16
-217 18 -284 5z m226 -196 c41 -12 66 -28 105 -68 56 -58 81 -114 91 -208 l6
-58 -312 0 -313 0 7 43 c38 227 214 350 416 291z"/>
<path d="M12310 2154 c-218 -46 -373 -209 -425 -444 -22 -98 -22 -308 0 -410
48 -230 210 -406 417 -455 82 -19 255 -19 337 0 167 40 311 163 376 323 55
134 72 368 40 530 -47 236 -213 411 -433 457 -84 18 -227 18 -312 -1z m220
-195 c153 -24 238 -115 274 -292 44 -210 -3 -456 -106 -554 -61 -58 -120 -78
-233 -78 -88 1 -106 4 -151 27 -133 69 -194 208 -194 438 0 277 92 428 280
460 64 11 59 11 130 -1z"/>
<path d="M7240 2140 c0 -5 115 -297 255 -648 l255 -637 -46 -118 c-36 -94 -55
-128 -95 -171 -69 -75 -110 -90 -239 -84 l-100 5 0 -97 0 -98 33 -5 c230 -41
395 11 509 161 20 26 52 79 71 117 28 55 409 1051 578 1508 l28 77 -132 0
-133 0 -152 -432 c-83 -238 -164 -475 -178 -525 l-27 -93 -23 88 c-21 85 -57
186 -247 702 l-95 255 -131 3 c-85 2 -131 -1 -131 -8z"/>
<path d="M19110 1495 l0 -655 185 0 185 0 0 655 0 655 -185 0 -185 0 0 -655z"/>
</g>
</svg>
